<!doctype html>
<svg viewBox="32.157 32.898 441.556 451.507" width="441.556" height="451.507">
  <g transform="matrix(0.921442, 0, 0, 0.921442, 16.952986, 22.946564)" style="">
    <g>
      <g>
        <path d="M 475.4 10.8 L 376.9 10.8 C 365.6 10.8 356.5 19.9 356.5 31.2 L 356.5 312 L 36.9 312 C 25.6 312 16.5 321.1 16.5 332.4 C 16.5 343.7 25.6 352.8 36.9 352.8 L 376.8 352.8 C 388.1 352.8 397.2 343.7 397.2 332.4 L 397.2 51.7 L 475.3 51.7 C 486.6 51.7 495.7 42.6 495.7 31.3 C 495.8 20 486.6 10.8 475.4 10.8 Z" fill="#f9f8fb"></path>
        <path d="M 129.1 363.4 C 91 363.4 60 394.2 60 432.1 C 60 470 91 500.8 129.1 500.8 C 167.2 500.8 198.2 470 198.2 432.1 C 198.2 394.2 167.2 363.4 129.1 363.4 Z M 129.1 460 C 113.5 460 100.8 447.5 100.8 432.1 C 100.8 416.7 113.5 404.2 129.1 404.2 C 144.7 404.2 157.4 416.7 157.4 432.1 C 157.4 447.5 144.7 460 129.1 460 Z" fill="#f9f8fb"></path>
        <path d="M 306.1 363.4 C 268 363.4 237 394.2 237 432.1 C 237 470 268 500.8 306.1 500.8 C 344.2 500.8 375.2 470 375.2 432.1 C 375.2 394.2 344.2 363.4 306.1 363.4 Z M 306.1 460 C 290.5 460 277.8 447.5 277.8 432.1 C 277.8 416.7 290.5 404.2 306.1 404.2 C 321.7 404.2 334.4 416.7 334.4 432.1 C 334.4 447.5 321.7 460 306.1 460 Z" fill="#f9f8fb"></path>
        <path fill-rule="evenodd" clip-rule="evenodd" d="M 99.196 171.475 C 90.424 162.703 76.202 162.703 67.43 171.475 C 58.66 180.245 58.66 194.467 67.43 203.239 L 134.812 270.62 C 143.584 279.39 157.805 279.39 166.577 270.62 L 323.8 113.397 C 332.573 104.625 332.573 90.403 323.8 81.631 C 315.03 72.861 300.809 72.861 292.037 81.631 L 150.695 222.974 L 99.196 171.475 Z" style="fill: rgb(249, 248, 251);"></path>
      </g>
    </g>
  </g>
</svg>