<?xml version="1.0" encoding="UTF-8" standalone="no" ?>
<!DOCTYPE svg PUBLIC "-//W3C//DTD SVG 1.1//EN" "http://www.w3.org/Graphics/SVG/1.1/DTD/svg11.dtd">
<svg xmlns="http://www.w3.org/2000/svg" xmlns:xlink="http://www.w3.org/1999/xlink" version="1.1" width="500" height="370" viewBox="0 0 500 370" xml:space="preserve">
<desc>Created with Fabric.js 4.6.0</desc>
<defs>
</defs>
<g transform="matrix(1.45 0 0 1.45 250.97 184.6)" id="eyV85vJ_iE8ZWA_MWKRL9"  >
<g style="" vector-effect="non-scaling-stroke"   >
		<g transform="matrix(6.43 0 0 6.43 62.05 -5.24)" id="VHVbZLT5sQ3aDVxjUM2Ku"  >
<path style="stroke: rgb(127,154,24); stroke-width: 0; stroke-dasharray: none; stroke-linecap: butt; stroke-dashoffset: 0; stroke-linejoin: miter; stroke-miterlimit: 4; fill: #8e2de2; fill-rule: nonzero; opacity: 1;" vector-effect="non-scaling-stroke"  transform=" translate(0, 0)" d="M 0 -15.83113 C 8.73878 -15.83113 15.83113 -8.73878 15.83113 0 C 15.83113 8.73879 8.73878 15.83113 0 15.83113 C -8.73878 15.83113 -15.83113 8.73878 -15.83113 0 C -15.83113 -8.73879 -8.73878 -15.83113 0 -15.83113 z" stroke-linecap="round" />
</g>
		<g transform="matrix(1.04 0 0 1.04 45.56 96.5)" id="-uge_BA9bVXsAFYBeH3H-"  >
<path style="stroke: rgb(127,154,24); stroke-width: 0; stroke-dasharray: none; stroke-linecap: butt; stroke-dashoffset: 0; stroke-linejoin: miter; stroke-miterlimit: 4; fill: rgb(0,0,0); fill-rule: nonzero; opacity: 1;" vector-effect="non-scaling-stroke"  transform=" translate(0, 0)" d="M 0 -15.83113 C 8.73878 -15.83113 15.83113 -8.73878 15.83113 0 C 15.83113 8.73879 8.73878 15.83113 0 15.83113 C -8.73878 15.83113 -15.83113 8.73878 -15.83113 0 C -15.83113 -8.73879 -8.73878 -15.83113 0 -15.83113 z" stroke-linecap="round" />
</g>
		<g transform="matrix(1.04 0 0 1.04 -30.65 96.5)" id="Vcz5GIK4IxuxxDS5DHOE4"  >
<path style="stroke: rgb(127,154,24); stroke-width: 0; stroke-dasharray: none; stroke-linecap: butt; stroke-dashoffset: 0; stroke-linejoin: miter; stroke-miterlimit: 4; fill: #8e2de2; fill-rule: nonzero; opacity: 1;" vector-effect="non-scaling-stroke"  transform=" translate(0, 0)" d="M 0 -15.83113 C 8.73878 -15.83113 15.83113 -8.73878 15.83113 0 C 15.83113 8.73879 8.73878 15.83113 0 15.83113 C -8.73878 15.83113 -15.83113 8.73878 -15.83113 0 C -15.83113 -8.73879 -8.73878 -15.83113 0 -15.83113 z" stroke-linecap="round" />
</g>
		<g transform="matrix(0.07 0 0 -0.07 -20.95 -16.49)" id="9gl2umLXSgR49uZqn7dnz"  >
<path style="stroke: none; stroke-width: 1; stroke-dasharray: none; stroke-linecap: butt; stroke-dashoffset: 0; stroke-linejoin: miter; stroke-miterlimit: 4; fill: rgb(0,0,0); fill-rule: nonzero; opacity: 1;" vector-effect="non-scaling-stroke"  transform=" translate(0, 0)" d="M -1934.80162 1355.40569 C -1969.80162 1337.40569 -1982.80162 1312.40569 -1982.80162 1266.40569 C -1982.80162 1219.40569 -1969.80162 1195.40569 -1932.80162 1176.40569 C -1908.80162 1164.40569 -1851.80162 1161.40569 -1604.80162 1161.40569 C -1307.80162 1161.40569 -1305.80162 1161.40569 -1285.80162 1139.40569 C -1274.80162 1126.40569 -1233.80162 1031.40569 -1194.80162 926.40569 C -1066.80162 583.40569 -1058.80162 570.40569 -961.80162 516.40569 L -892.8688199999999 502.40569000000005 L 382.19838000000004 481.40569000000005 C 1597.19838 476.40569000000005 1674.19838 475.40569000000005 1713.19838 458.40569000000005 C 1736.19838 448.40569000000005 1759.19838 430.40569000000005 1764.19838 418.40569000000005 C 1780.19838 383.40569000000005 1763.19838 282.40569000000005 1702.19838 49.40569000000005 C 1635.19838 -208.59430999999995 1603.19838 -331.59430999999995 1488.19838 -776.59431 C 1435.19838 -982.59431 1393.19838 -1127.59431 1383.19838 -1136.59431 C 1368.19838 -1152.59431 1288.19838 -1153.59431 455.19838000000004 -1156.59431 C -335.80161999999996 -1158.59431 -458.80161999999996 -1156.59431 -478.80161999999996 -1144.59431 C -492.80161999999996 -1134.59431 -514.80162 -1094.59431 -537.80162 -1031.59431 C -633.80162 -780.59431 -656.80162 -744.59431 -747.80162 -695.59431 C -785.80162 -674.59431 -802.80162 -673.59431 -1084.80162 -670.59431 C -1423.80162 -666.59431 -1432.80162 -668.59431 -1453.80162 -737.59431 C -1467.80162 -785.59431 -1456.80162 -824.59431 -1418.80162 -852.59431 C -1392.80162 -872.59431 -1375.80162 -873.59431 -1112.80162 -876.59431 C -865.80162 -879.59431 -833.80162 -881.59431 -819.80162 -896.59431 C -811.80162 -905.59431 -781.80162 -975.59431 -753.80162 -1050.59431 C -726.80162 -1125.59431 -696.80162 -1201.59431 -687.80162 -1217.59431 C -664.80162 -1263.59431 -604.80162 -1318.59431 -553.80162 -1342.59431 C -508.80161999999996 -1363.59431 -495.80161999999996 -1363.59431 232.19838000000004 -1368.59431 C 639.19838 -1371.59431 1079.19838 -1372.59431 1197.19838 -1369.59431 L 1412.19838 -1363.59431 L 1466.19838 -1333.59431 C 1495.19838 -1317.59431 1534.19838 -1286.59431 1553.19838 -1264.59431 C 1593.19838 -1218.59431 1608.19838 -1172.59431 1682.19838 -883.59431 C 1809.19838 -387.59430999999995 1908.19838 -5.59430999999995 1943.19838 126.40569000000005 C 1986.19838 289.40569000000005 1995.19838 436.40569000000005 1965.19838 502.40569000000005 C 1942.19838 555.40569 1890.19838 609.40569 1836.19838 637.40569 C 1726.19838 692.40569 1767.19838 691.40569 401.19838000000004 691.40569 L -859.80162 691.40569 L -879.80162 714.40569 C -891.80162 726.40569 -940.80162 841.40569 -987.80162 968.40569 C -1035.80162 1096.40569 -1087.80162 1221.40569 -1103.80162 1246.40569 C -1134.80162 1294.40569 -1204.80162 1345.40569 -1262.80162 1361.40569 C -1281.80162 1367.40569 -1432.80162 1371.40569 -1602.80162 1371.40569 C -1852.80162 1370.40569 -1912.80162 1368.40569 -1934.80162 1355.40569 z" stroke-linecap="round" />
</g>
		<g transform="matrix(0.07 0 0 -0.07 -127.99 -29.8)" id="LeUDVnB71vA1_mjsz0yw-"  >
<path style="stroke: none; stroke-width: 1; stroke-dasharray: none; stroke-linecap: butt; stroke-dashoffset: 0; stroke-linejoin: miter; stroke-miterlimit: 4; fill: rgb(0,0,0); fill-rule: nonzero; opacity: 1;" vector-effect="non-scaling-stroke"  transform=" translate(-824.35, -2104.63)" d="M 384 2200 C 350 2187 320 2141 320 2103 C 320 2077 328 2060 354 2034 L 388 2000 L 819 2000 C 1131 2000 1256 2003 1275 2012 C 1350 2046 1345 2172 1269 2199 C 1231 2212 417 2213 384 2200 z" stroke-linecap="round" />
</g>
		<g transform="matrix(0.07 0 0 -0.07 2.13 -29.81)" id="CMaaWEObwjkCCv4KMTAHL"  >
<path style="stroke: none; stroke-width: 1; stroke-dasharray: none; stroke-linecap: butt; stroke-dashoffset: 0; stroke-linejoin: miter; stroke-miterlimit: 4; fill: rgb(0,0,0); fill-rule: nonzero; opacity: 1;" vector-effect="non-scaling-stroke"  transform=" translate(-2536.4, -2104.73)" d="M 1530 2199 C 1451 2168 1449 2051 1527 2011 C 1542 2003 1830 2000 2543 2000 C 3530 2000 3538 2000 3563 2020 C 3599 2049 3613 2103 3596 2145 C 3566 2215 3643 2210 2545 2209 C 1923 2209 1546 2205 1530 2199 z" stroke-linecap="round" />
</g>
		<g transform="matrix(0.07 0 0 -0.07 -73.78 9.18)" id="7RBcwvdPHamPxNvBR6P6o"  >
<path style="stroke: none; stroke-width: 1; stroke-dasharray: none; stroke-linecap: butt; stroke-dashoffset: 0; stroke-linejoin: miter; stroke-miterlimit: 4; fill: rgb(0,0,0); fill-rule: nonzero; opacity: 1;" vector-effect="non-scaling-stroke"  transform=" translate(0, 0)" d="M -255.43641 98.33634 L -924.83226 106.33634 L -954.43641 67.33634 C -995.43641 25.336340000000007 -988.43641 -58.66365999999999 -940.43641 -88.66366 C -928.43641 -95.66366 -624.43641 -99.66366 -0.4364100000000235 -102.66366 L 923.56359 -106.66366 L 952.56359 -73.66366 C 987.56359 -34.66365999999999 990.56359 8.336340000000007 961.56359 55.33634000000001 C 932.56359 102.33634 896.56359 108.33634 641.56359 106.33634 C 517.56359 104.33634 113.56358999999998 101.33634 -255.43641000000002 98.33634 z" stroke-linecap="round" />
</g>
		<g transform="matrix(0.07 0 0 -0.07 41.54 9.32)" id="tgTPgf30o3Pu_7gz2O_Qk"  >
<path style="stroke: none; stroke-width: 1; stroke-dasharray: none; stroke-linecap: butt; stroke-dashoffset: 0; stroke-linejoin: miter; stroke-miterlimit: 4; fill: rgb(0,0,0); fill-rule: nonzero; opacity: 1;" vector-effect="non-scaling-stroke"  transform=" translate(-3055.06, -1589.86)" d="M 2703 1689 C 2629 1667 2606 1578 2659 1518 L 2688 1485 L 3037 1482 C 3228 1480 3395 1482 3407 1485 C 3447 1495 3480 1540 3480 1587 C 3480 1640 3449 1678 3395 1690 C 3343 1702 2745 1701 2703 1689 z" stroke-linecap="round" />
</g>
		<g transform="matrix(0.07 0 0 -0.07 -2.94 43.54)" id="aEal69gHDoivCoHuEJesa"  >
<path style="stroke: none; stroke-width: 1; stroke-dasharray: none; stroke-linecap: butt; stroke-dashoffset: 0; stroke-linejoin: miter; stroke-miterlimit: 4; fill: rgb(0,0,0); fill-rule: nonzero; opacity: 1;" vector-effect="non-scaling-stroke"  transform=" translate(-2469.72, -1139.61)" d="M 1976 1241 C 1883 1228 1848 1128 1915 1066 C 1937 1046 1954 1042 2067 1037 C 2138 1033 2368 1030 2580 1030 C 3022 1030 3023 1030 3050 1108 C 3063 1147 3063 1153 3045 1187 C 3010 1250 3013 1250 2493 1249 C 2236 1248 2003 1244 1976 1241 z" stroke-linecap="round" />
</g>
</g>
</g>
</svg>